<?xml version="1.0" encoding="UTF-8" standalone="no"?>
<!-- Created with Inkscape (http://www.inkscape.org/) -->

<svg
   xmlns:dc="http://purl.org/dc/elements/1.1/"
   xmlns:cc="http://creativecommons.org/ns#"
   xmlns:rdf="http://www.w3.org/1999/02/22-rdf-syntax-ns#"
   xmlns:svg="http://www.w3.org/2000/svg"
   xmlns="http://www.w3.org/2000/svg"
   xmlns:sodipodi="http://sodipodi.sourceforge.net/DTD/sodipodi-0.dtd"
   xmlns:inkscape="http://www.inkscape.org/namespaces/inkscape"
   width="320"
   height="280"
   id="svg6459"
   version="1.1"
   inkscape:version="0.48.4 r9939"
   sodipodi:docname="figure_mechanisms.svg">
  <defs
     id="defs6461" />
  <sodipodi:namedview
     id="base"
     pagecolor="#ffffff"
     bordercolor="#666666"
     borderopacity="1.0"
     inkscape:pageopacity="0.0"
     inkscape:pageshadow="2"
     inkscape:zoom="3.959798"
     inkscape:cx="212.49448"
     inkscape:cy="139.50011"
     inkscape:document-units="px"
     inkscape:current-layer="layer1"
     showgrid="false"
     units="px"
     inkscape:window-width="1640"
     inkscape:window-height="1004"
     inkscape:window-x="313"
     inkscape:window-y="383"
     inkscape:window-maximized="0" />
  <metadata
     id="metadata6464">
    <rdf:RDF>
      <cc:Work
         rdf:about="">
        <dc:format>image/svg+xml</dc:format>
        <dc:type
           rdf:resource="http://purl.org/dc/dcmitype/StillImage" />
        <dc:title></dc:title>
      </cc:Work>
    </rdf:RDF>
  </metadata>
  <g
     inkscape:label="Layer 1"
     inkscape:groupmode="layer"
     id="layer1"
     transform="translate(0,-772.3598)">
    <g
       style="stroke:#babdb6"
       id="g50896"
       transform="matrix(0.9,0,0,0.9,2.576941,260.66427)">
      <path
         sodipodi:nodetypes="cc"
         id="path50898"
         d="m 84.126532,786.05409 c 5.506222,5.86819 2.343555,29.60203 23.173808,57.27578"
         style="fill:none;stroke:#babdb6;stroke-width:1.81509173;stroke-linecap:butt;stroke-linejoin:miter;stroke-miterlimit:4;stroke-opacity:1;stroke-dasharray:none;display:inline"
         inkscape:connector-curvature="0" />
      <path
         style="fill:none;stroke:#babdb6;stroke-width:2.26886463;stroke-linecap:butt;stroke-linejoin:miter;stroke-miterlimit:4;stroke-opacity:1;stroke-dasharray:none;display:inline"
         d="m 103.44988,845.54691 7.68209,-3.78022"
         id="path50900"
         inkscape:connector-curvature="0"
         sodipodi:nodetypes="cc" />
      <path
         transform="matrix(0.45377293,0,0,0.45377293,-12.259708,667.90576)"
         d="m 225.26402,233.12846 c 0,18.96833 -15.37686,34.34519 -34.34518,34.34519 -18.96832,0 -34.34519,-15.37686 -34.34519,-34.34519 0,-18.96832 15.37687,-34.34518 34.34519,-34.34518 18.96832,0 34.34518,15.37686 34.34518,34.34518 z"
         sodipodi:ry="34.345184"
         sodipodi:rx="34.345184"
         sodipodi:cy="233.12846"
         sodipodi:cx="190.91884"
         id="path50902"
         style="fill:#eeeeec;fill-opacity:1;stroke:#babdb6;stroke-width:5;stroke-linecap:round;stroke-miterlimit:4;stroke-opacity:1;stroke-dasharray:none"
         sodipodi:type="arc" />
      <path
         inkscape:connector-curvature="0"
         style="fill:none;stroke:#babdb6;stroke-width:1.81509173;stroke-linecap:butt;stroke-linejoin:miter;stroke-miterlimit:4;stroke-opacity:1;stroke-dasharray:none;display:inline"
         d="m 84.058142,785.96961 c 6.934793,8.54676 15.432972,1.89417 21.123638,8.01072"
         id="path50904"
         sodipodi:nodetypes="cc" />
      <path
         inkscape:connector-curvature="0"
         id="path50906"
         d="m 103.22028,796.71812 4.37851,-5.1195"
         style="fill:none;stroke:#babdb6;stroke-width:2.26886463;stroke-linecap:butt;stroke-linejoin:miter;stroke-miterlimit:4;stroke-opacity:1;stroke-dasharray:none;display:inline"
         sodipodi:nodetypes="cc" />
    </g>
    <path
       inkscape:connector-curvature="0"
       style="fill:none;stroke:#babdb6;stroke-width:1.63358259;stroke-linecap:butt;stroke-linejoin:miter;stroke-miterlimit:4;stroke-opacity:1;stroke-dasharray:none;display:inline"
       d="m 229.2798,847.89165 c 12.0081,15.77585 13.96765,33.64431 34.08094,50.91676"
       id="path50914"
       sodipodi:nodetypes="cc" />
    <path
       transform="matrix(0.40839564,0,0,0.40839564,168.1432,739.37945)"
       d="m 225.26402,233.12846 c 0,18.96833 -15.37686,34.34519 -34.34518,34.34519 -18.96832,0 -34.34519,-15.37686 -34.34519,-34.34519 0,-18.96832 15.37687,-34.34518 34.34519,-34.34518 18.96832,0 34.34518,15.37686 34.34518,34.34518 z"
       sodipodi:ry="34.345184"
       sodipodi:rx="34.345184"
       sodipodi:cy="233.12846"
       sodipodi:cx="190.91884"
       id="path50929"
       style="fill:#eeeeec;fill-opacity:1;stroke:#cc0000;stroke-width:5;stroke-linecap:round;stroke-miterlimit:4;stroke-opacity:1;stroke-dasharray:none"
       sodipodi:type="arc" />
    <g
       id="g50857"
       style="stroke:#babdb6"
       transform="matrix(0.9,0,0,0.9,2.576941,138.26427)">
      <path
         inkscape:connector-curvature="0"
         style="fill:none;stroke:#babdb6;stroke-width:1.81509173;stroke-linecap:butt;stroke-linejoin:miter;stroke-miterlimit:4;stroke-opacity:1;stroke-dasharray:none;display:inline"
         d="m 84.126532,786.05409 c 5.506222,5.86819 0.381897,36.71642 21.212148,64.39017"
         id="path50844"
         sodipodi:nodetypes="cc" />
      <path
         inkscape:connector-curvature="0"
         id="path50846"
         d="m 102.96774,852.52905 5.27137,-4.58379"
         style="fill:none;stroke:#babdb6;stroke-width:2.26886463;stroke-linecap:butt;stroke-linejoin:miter;stroke-miterlimit:4;stroke-opacity:1;stroke-dasharray:none;display:inline" />
      <path
         sodipodi:type="arc"
         style="fill:#eeeeec;fill-opacity:1;stroke:#babdb6;stroke-width:5;stroke-linecap:round;stroke-miterlimit:4;stroke-opacity:1;stroke-dasharray:none"
         id="path50848"
         sodipodi:cx="190.91884"
         sodipodi:cy="233.12846"
         sodipodi:rx="34.345184"
         sodipodi:ry="34.345184"
         d="m 225.26402,233.12846 c 0,18.96833 -15.37686,34.34519 -34.34518,34.34519 -18.96832,0 -34.34519,-15.37686 -34.34519,-34.34519 0,-18.96832 15.37687,-34.34518 34.34519,-34.34518 18.96832,0 34.34518,15.37686 34.34518,34.34518 z"
         transform="matrix(0.45377293,0,0,0.45377293,-12.259708,667.90576)" />
      <path
         sodipodi:nodetypes="cc"
         id="path50853"
         d="m 84.058142,785.96961 c 6.934793,8.54676 16.147258,0.55488 21.480778,7.29643"
         style="fill:none;stroke:#babdb6;stroke-width:1.81509173;stroke-linecap:butt;stroke-linejoin:miter;stroke-miterlimit:4;stroke-opacity:1;stroke-dasharray:none;display:inline"
         inkscape:connector-curvature="0" />
      <path
         style="fill:none;stroke:#babdb6;stroke-width:2.26886463;stroke-linecap:butt;stroke-linejoin:miter;stroke-miterlimit:4;stroke-opacity:1;stroke-dasharray:none;display:inline"
         d="m 103.22028,796.71812 5.27137,-4.58379"
         id="path50855"
         inkscape:connector-curvature="0" />
    </g>
    <g
       id="g3940"
       style="stroke:#555753"
       transform="matrix(0.75628821,0,0,0.75628821,-346.29112,695.87981)" />
    <text
       xml:space="preserve"
       style="font-size:12px;font-style:normal;font-variant:normal;font-weight:bold;font-stretch:normal;text-align:center;line-height:125%;letter-spacing:0px;word-spacing:0px;text-anchor:middle;fill:#000000;fill-opacity:1;stroke:none;font-family:Helvetica;-inkscape-font-specification:Helvetica Bold"
       x="80.124207"
       y="790.3382"
       id="text3765"
       sodipodi:linespacing="125%"><tspan
         sodipodi:role="line"
         id="tspan3767"
         x="80.124207"
         y="790.3382">A. Long-term changes</tspan><tspan
         sodipodi:role="line"
         x="80.124207"
         y="805.3382"
         id="tspan50828">in synaptic strength</tspan></text>
    <text
       sodipodi:linespacing="125%"
       id="text50072"
       y="790.3382"
       x="248.12421"
       style="font-size:12px;font-style:normal;font-variant:normal;font-weight:bold;font-stretch:normal;text-align:center;line-height:125%;letter-spacing:0px;word-spacing:0px;text-anchor:middle;fill:#000000;fill-opacity:1;stroke:none;font-family:Helvetica;-inkscape-font-specification:Helvetica Bold"
       xml:space="preserve"><tspan
         y="790.3382"
         x="248.12421"
         sodipodi:role="line"
         id="tspan50830">B. Integration of</tspan><tspan
         y="805.3382"
         x="248.12421"
         sodipodi:role="line"
         id="tspan50834">top-down signals</tspan></text>
    <path
       transform="matrix(0.40839564,0,0,0.40839564,-33.435688,790.74485)"
       d="m 225.26402,233.12846 a 34.345184,34.345184 0 1 1 -68.69037,0 34.345184,34.345184 0 1 1 68.69037,0 z"
       sodipodi:ry="34.345184"
       sodipodi:rx="34.345184"
       sodipodi:cy="233.12846"
       sodipodi:cx="190.91884"
       id="path50118"
       style="fill:#eeeeec;fill-opacity:1;stroke:#2e3436;stroke-width:5;stroke-linecap:round;stroke-miterlimit:4;stroke-opacity:1;stroke-dasharray:none"
       sodipodi:type="arc" />
    <text
       xml:space="preserve"
       style="font-size:13.06866074px;font-style:normal;font-variant:normal;font-weight:normal;font-stretch:normal;text-align:center;line-height:100%;writing-mode:lr-tb;text-anchor:middle;fill:#000000;fill-opacity:1;stroke:none;font-family:Helvetica;-inkscape-font-specification:Helvetica"
       x="44.467144"
       y="890.71698"
       id="text50120"
       sodipodi:linespacing="100%"><tspan
         sodipodi:role="line"
         id="tspan50122"
         x="44.467144"
         y="890.71698">S</tspan></text>
    <path
       sodipodi:type="arc"
       style="fill:#eeeeec;fill-opacity:1;stroke:#2e3436;stroke-width:5;stroke-linecap:round;stroke-miterlimit:4;stroke-opacity:1;stroke-dasharray:none"
       id="path50124"
       sodipodi:cx="190.91884"
       sodipodi:cy="233.12846"
       sodipodi:rx="34.345184"
       sodipodi:ry="34.345184"
       d="m 225.26402,233.12846 a 34.345184,34.345184 0 1 1 -68.69037,0 34.345184,34.345184 0 1 1 68.69037,0 z"
       transform="matrix(0.40839564,0,0,0.40839564,36.444938,765.23074)" />
    <text
       sodipodi:linespacing="100%"
       id="text50126"
       y="865.1264"
       x="114.04845"
       style="font-size:13.06866074px;font-style:normal;font-variant:normal;font-weight:normal;font-stretch:normal;text-align:center;line-height:100%;writing-mode:lr-tb;text-anchor:middle;fill:#000000;fill-opacity:1;stroke:none;font-family:Helvetica;-inkscape-font-specification:Helvetica"
       xml:space="preserve"><tspan
         y="865.1264"
         x="114.04845"
         id="tspan50128"
         sodipodi:role="line">L</tspan></text>
    <path
       sodipodi:type="arc"
       style="fill:#eeeeec;fill-opacity:1;stroke:#2e3436;stroke-width:5;stroke-linecap:round;stroke-miterlimit:4;stroke-opacity:1;stroke-dasharray:none"
       id="path50130"
       sodipodi:cx="190.91884"
       sodipodi:cy="233.12846"
       sodipodi:rx="34.345184"
       sodipodi:ry="34.345184"
       d="m 225.26402,233.12846 a 34.345184,34.345184 0 1 1 -68.69037,0 34.345184,34.345184 0 1 1 68.69037,0 z"
       transform="matrix(0.40839564,0,0,0.40839564,36.444938,815.24859)" />
    <text
       sodipodi:linespacing="100%"
       id="text50132"
       y="915.22076"
       x="114.34776"
       style="font-size:13.06866074px;font-style:normal;font-variant:normal;font-weight:normal;font-stretch:normal;text-align:center;line-height:100%;writing-mode:lr-tb;text-anchor:middle;fill:#888a85;fill-opacity:1;stroke:none;font-family:Helvetica;-inkscape-font-specification:Helvetica"
       xml:space="preserve"><tspan
         y="915.22076"
         x="114.34776"
         id="tspan50134"
         sodipodi:role="line">R</tspan></text>
    <path
       sodipodi:nodetypes="csc"
       id="path50732"
       d="m 59.466369,885.19122 c 7.017559,-0.16035 12.788359,2.35996 19.542757,14.15425 6.754392,11.79429 18.295744,10.39951 18.295744,10.39951"
       style="fill:none;stroke:#2e3436;stroke-width:1.31359339000000008;stroke-linecap:butt;stroke-linejoin:miter;stroke-miterlimit:4;stroke-opacity:1;stroke-dasharray:none"
       inkscape:connector-curvature="0" />
    <path
       inkscape:connector-curvature="0"
       style="fill:none;stroke:#2e3436;stroke-width:1.31359339;stroke-linecap:butt;stroke-linejoin:miter;stroke-miterlimit:4;stroke-opacity:1;stroke-dasharray:none"
       d="m 59.466369,885.30898 c 7.017559,0.16036 12.788359,-2.35995 19.542757,-14.15424 6.754392,-11.79429 18.295744,-10.39951 18.295744,-10.39951"
       id="path50138"
       sodipodi:nodetypes="csc" />
    <path
       sodipodi:type="star"
       style="fill:#cc0000;fill-opacity:1;stroke:#cc0000;stroke-width:4;stroke-linecap:round;stroke-miterlimit:4;stroke-opacity:1;stroke-dasharray:none"
       id="path50142"
       sodipodi:sides="3"
       sodipodi:cx="298.50009"
       sodipodi:cy="246.26045"
       sodipodi:r1="7.0710678"
       sodipodi:r2="3.5355339"
       sodipodi:arg1="3.1415927"
       sodipodi:arg2="4.1887902"
       inkscape:flatsided="false"
       inkscape:rounded="0"
       inkscape:randomized="0"
       d="m 291.42902,246.26045 5.3033,-3.06186 5.30331,-3.06186 0,6.12372 0,6.12373 -5.30331,-3.06187 z"
       transform="matrix(0.2932488,0,0,0.2932488,9.507998,837.52826)" />
    <path
       sodipodi:type="arc"
       style="fill:#eeeeec;fill-opacity:1;stroke:#2e3436;stroke-width:5;stroke-linecap:round;stroke-miterlimit:4;stroke-opacity:1;stroke-dasharray:none"
       id="path50734"
       sodipodi:cx="190.91884"
       sodipodi:cy="233.12846"
       sodipodi:rx="34.345184"
       sodipodi:ry="34.345184"
       d="m 225.26402,233.12846 a 34.345184,34.345184 0 1 1 -68.69037,0 34.345184,34.345184 0 1 1 68.69037,0 z"
       transform="matrix(0.40839564,0,0,0.40839564,-33.435688,910.98485)" />
    <text
       sodipodi:linespacing="100%"
       id="text50736"
       y="1010.957"
       x="44.467144"
       style="font-size:13.06866074px;font-style:normal;font-variant:normal;font-weight:normal;font-stretch:normal;text-align:center;line-height:100%;writing-mode:lr-tb;text-anchor:middle;fill:#000000;fill-opacity:1;stroke:none;font-family:Helvetica;-inkscape-font-specification:Helvetica"
       xml:space="preserve"><tspan
         y="1010.957"
         x="44.467144"
         id="tspan50738"
         sodipodi:role="line">S</tspan></text>
    <path
       transform="matrix(0.40839564,0,0,0.40839564,36.444938,885.47074)"
       d="m 225.26402,233.12846 a 34.345184,34.345184 0 1 1 -68.69037,0 34.345184,34.345184 0 1 1 68.69037,0 z"
       sodipodi:ry="34.345184"
       sodipodi:rx="34.345184"
       sodipodi:cy="233.12846"
       sodipodi:cx="190.91884"
       id="path50740"
       style="fill:#eeeeec;fill-opacity:1;stroke:#2e3436;stroke-width:5;stroke-linecap:round;stroke-miterlimit:4;stroke-opacity:1;stroke-dasharray:none"
       sodipodi:type="arc" />
    <text
       xml:space="preserve"
       style="font-size:13.06866074px;font-style:normal;font-variant:normal;font-weight:normal;font-stretch:normal;text-align:center;line-height:100%;writing-mode:lr-tb;text-anchor:middle;fill:#888a85;fill-opacity:1;stroke:none;font-family:Helvetica;-inkscape-font-specification:Helvetica"
       x="114.04845"
       y="985.36639"
       id="text50742"
       sodipodi:linespacing="100%"><tspan
         sodipodi:role="line"
         id="tspan50744"
         x="114.04845"
         y="985.36639">L</tspan></text>
    <path
       transform="matrix(0.40839564,0,0,0.40839564,36.444938,935.48859)"
       d="m 225.26402,233.12846 a 34.345184,34.345184 0 1 1 -68.69037,0 34.345184,34.345184 0 1 1 68.69037,0 z"
       sodipodi:ry="34.345184"
       sodipodi:rx="34.345184"
       sodipodi:cy="233.12846"
       sodipodi:cx="190.91884"
       id="path50746"
       style="fill:#eeeeec;fill-opacity:1;stroke:#2e3436;stroke-width:5;stroke-linecap:round;stroke-miterlimit:4;stroke-opacity:1;stroke-dasharray:none"
       sodipodi:type="arc" />
    <text
       xml:space="preserve"
       style="font-size:13.06866074px;font-style:normal;font-variant:normal;font-weight:normal;font-stretch:normal;text-align:center;line-height:100%;writing-mode:lr-tb;text-anchor:middle;fill:#000000;fill-opacity:1;stroke:none;font-family:Helvetica;-inkscape-font-specification:Helvetica"
       x="114.34776"
       y="1035.4608"
       id="text50748"
       sodipodi:linespacing="100%"><tspan
         sodipodi:role="line"
         id="tspan50750"
         x="114.34776"
         y="1035.4608">R</tspan></text>
    <path
       inkscape:connector-curvature="0"
       style="fill:none;stroke:#2e3436;stroke-width:1.31359339000000008;stroke-linecap:butt;stroke-linejoin:miter;stroke-miterlimit:4;stroke-opacity:1;stroke-dasharray:none"
       d="m 59.466369,1005.549 c 7.017559,0.1604 12.788359,-2.36 19.542757,-14.15423 6.754392,-11.79432 18.295744,-10.39954 18.295744,-10.39954"
       id="path50754"
       sodipodi:nodetypes="csc" />
    <path
       sodipodi:nodetypes="csc"
       id="path50756"
       d="m 59.466369,1005.4312 c 7.017559,-0.1603 12.788359,2.36 19.542757,14.1543 6.754392,11.7943 18.295744,10.3995 18.295744,10.3995"
       style="fill:none;stroke:#2e3436;stroke-width:1.31359339;stroke-linecap:butt;stroke-linejoin:miter;stroke-miterlimit:4;stroke-opacity:1;stroke-dasharray:none"
       inkscape:connector-curvature="0" />
    <path
       transform="matrix(0.2932488,0,0,0.2932488,9.507998,908.80826)"
       d="m 291.42902,246.26045 5.3033,-3.06186 5.30331,-3.06186 0,6.12372 0,6.12373 -5.30331,-3.06187 z"
       inkscape:randomized="0"
       inkscape:rounded="0"
       inkscape:flatsided="false"
       sodipodi:arg2="4.1887902"
       sodipodi:arg1="3.1415927"
       sodipodi:r2="3.5355339"
       sodipodi:r1="7.0710678"
       sodipodi:cy="246.26045"
       sodipodi:cx="298.50009"
       sodipodi:sides="3"
       id="path50758"
       style="fill:#cc0000;fill-opacity:1;stroke:#cc0000;stroke-width:4;stroke-linecap:round;stroke-miterlimit:4;stroke-opacity:1;stroke-dasharray:none"
       sodipodi:type="star" />
    <path
       sodipodi:type="arc"
       style="fill:#eeeeec;fill-opacity:1;stroke:#2e3436;stroke-width:5;stroke-linecap:round;stroke-miterlimit:4;stroke-opacity:1;stroke-dasharray:none"
       id="path50760"
       sodipodi:cx="190.91884"
       sodipodi:cy="233.12846"
       sodipodi:rx="34.345184"
       sodipodi:ry="34.345184"
       d="m 225.26402,233.12846 c 0,18.96833 -15.37686,34.34519 -34.34518,34.34519 -18.96832,0 -34.34519,-15.37686 -34.34519,-34.34519 0,-18.96832 15.37687,-34.34518 34.34519,-34.34518 18.96832,0 34.34518,15.37686 34.34518,34.34518 z"
       transform="matrix(0.40839564,0,0,0.40839564,130.56431,790.21278)" />
    <text
       sodipodi:linespacing="100%"
       id="text50762"
       y="890.18494"
       x="208.46715"
       style="font-size:13.06866074px;font-style:normal;font-variant:normal;font-weight:normal;font-stretch:normal;text-align:center;line-height:100%;writing-mode:lr-tb;text-anchor:middle;fill:#000000;fill-opacity:1;stroke:none;font-family:Helvetica;-inkscape-font-specification:Helvetica"
       xml:space="preserve"><tspan
         y="890.18494"
         x="208.46715"
         id="tspan50764"
         sodipodi:role="line">S</tspan></text>
    <path
       transform="matrix(0.40839564,0,0,0.40839564,200.44494,764.69867)"
       d="m 225.26402,233.12846 c 0,18.96833 -15.37686,34.34519 -34.34518,34.34519 -18.96832,0 -34.34519,-15.37686 -34.34519,-34.34519 0,-18.96832 15.37687,-34.34518 34.34519,-34.34518 18.96832,0 34.34518,15.37686 34.34518,34.34518 z"
       sodipodi:ry="34.345184"
       sodipodi:rx="34.345184"
       sodipodi:cy="233.12846"
       sodipodi:cx="190.91884"
       id="path50766"
       style="fill:#eeeeec;fill-opacity:1;stroke:#2e3436;stroke-width:5;stroke-linecap:round;stroke-miterlimit:4;stroke-opacity:1;stroke-dasharray:none"
       sodipodi:type="arc" />
    <text
       xml:space="preserve"
       style="font-size:13.06866074px;font-style:normal;font-variant:normal;font-weight:normal;font-stretch:normal;text-align:center;line-height:100%;writing-mode:lr-tb;text-anchor:middle;fill:#000000;fill-opacity:1;stroke:none;font-family:Helvetica;-inkscape-font-specification:Helvetica"
       x="278.04843"
       y="864.5943"
       id="text50768"
       sodipodi:linespacing="100%"><tspan
         sodipodi:role="line"
         id="tspan50770"
         x="278.04843"
         y="864.5943">L</tspan></text>
    <path
       transform="matrix(0.40839564,0,0,0.40839564,200.44494,814.71652)"
       d="m 225.26402,233.12846 c 0,18.96833 -15.37686,34.34519 -34.34518,34.34519 -18.96832,0 -34.34519,-15.37686 -34.34519,-34.34519 0,-18.96832 15.37687,-34.34518 34.34519,-34.34518 18.96832,0 34.34518,15.37686 34.34518,34.34518 z"
       sodipodi:ry="34.345184"
       sodipodi:rx="34.345184"
       sodipodi:cy="233.12846"
       sodipodi:cx="190.91884"
       id="path50772"
       style="fill:#eeeeec;fill-opacity:1;stroke:#2e3436;stroke-width:5;stroke-linecap:round;stroke-miterlimit:4;stroke-opacity:1;stroke-dasharray:none"
       sodipodi:type="arc" />
    <text
       xml:space="preserve"
       style="font-size:13.06866074px;font-style:normal;font-variant:normal;font-weight:normal;font-stretch:normal;text-align:center;line-height:100%;writing-mode:lr-tb;text-anchor:middle;fill:#888a85;fill-opacity:1;stroke:none;font-family:Helvetica;-inkscape-font-specification:Helvetica"
       x="278.34775"
       y="914.68866"
       id="text50774"
       sodipodi:linespacing="100%"><tspan
         sodipodi:role="line"
         id="tspan50776"
         x="278.34775"
         y="914.68866">R</tspan></text>
    <path
       sodipodi:type="star"
       style="fill:#2e3436;fill-opacity:1;stroke:#2e3436;stroke-width:4;stroke-linecap:round;stroke-miterlimit:4;stroke-opacity:1;stroke-dasharray:none"
       id="path50778"
       sodipodi:sides="3"
       sodipodi:cx="298.50009"
       sodipodi:cy="246.26045"
       sodipodi:r1="7.0710678"
       sodipodi:r2="3.5355339"
       sodipodi:arg1="3.1415927"
       sodipodi:arg2="4.1887902"
       inkscape:flatsided="false"
       inkscape:rounded="0"
       inkscape:randomized="0"
       d="m 291.42902,246.26045 5.3033,-3.06186 5.30331,-3.06186 0,6.12372 0,6.12373 -5.30331,-3.06187 z"
       transform="matrix(0.41068838,0,0,0.41068838,137.31043,759.32936)" />
    <path
       inkscape:connector-curvature="0"
       style="fill:none;stroke:#2e3436;stroke-width:1.31359339;stroke-linecap:butt;stroke-linejoin:miter;stroke-miterlimit:4;stroke-opacity:1;stroke-dasharray:none"
       d="m 223.46637,884.65916 c 7.01755,-0.16036 12.78835,2.35995 19.54276,14.15424 6.75439,11.79429 18.29574,10.39951 18.29574,10.39951"
       id="path50780"
       sodipodi:nodetypes="csc" />
    <path
       sodipodi:nodetypes="csc"
       id="path50782"
       d="m 223.46637,884.77692 c 7.01755,0.16035 12.78835,-2.35997 19.54276,-14.15425 6.75439,-11.79429 18.29574,-10.39951 18.29574,-10.39951"
       style="fill:none;stroke:#2e3436;stroke-width:1.31359339;stroke-linecap:butt;stroke-linejoin:miter;stroke-miterlimit:4;stroke-opacity:1;stroke-dasharray:none"
       inkscape:connector-curvature="0" />
    <path
       transform="matrix(0.41068838,0,0,0.41068838,137.31043,807.92936)"
       d="m 291.42902,246.26045 5.3033,-3.06186 5.30331,-3.06186 0,6.12372 0,6.12373 -5.30331,-3.06187 z"
       inkscape:randomized="0"
       inkscape:rounded="0"
       inkscape:flatsided="false"
       sodipodi:arg2="4.1887902"
       sodipodi:arg1="3.1415927"
       sodipodi:r2="3.5355339"
       sodipodi:r1="7.0710678"
       sodipodi:cy="246.26045"
       sodipodi:cx="298.50009"
       sodipodi:sides="3"
       id="path50836"
       style="fill:#2e3436;fill-opacity:1;stroke:#2e3436;stroke-width:4;stroke-linecap:round;stroke-miterlimit:4;stroke-opacity:1;stroke-dasharray:none"
       sodipodi:type="star" />
    <text
       sodipodi:linespacing="100%"
       id="text50864"
       y="838.02423"
       x="69.526192"
       style="font-size:10.80000019px;font-style:normal;font-variant:normal;font-weight:normal;font-stretch:normal;text-align:center;line-height:100%;writing-mode:lr-tb;text-anchor:middle;fill:#000000;fill-opacity:1;stroke:none;font-family:Helvetica;-inkscape-font-specification:Helvetica"
       xml:space="preserve"><tspan
         y="838.02423"
         x="69.526192"
         id="tspan50866"
         sodipodi:role="line">Rew</tspan></text>
    <path
       id="path50886"
       d="m 136.07103,865.21804 6.03464,-4.77865 -6.03464,-4.77864 0,2.38062 c -1.41154,0 -1.02307,0 -2.43461,0 l -2.80328,0 0,4.77865 2.80328,0 c 1.41154,0 1.02307,0 2.43461,0 z"
       style="fill:none;stroke:#888a85;stroke-width:0.95984286;stroke-linecap:round;stroke-linejoin:round;stroke-miterlimit:4;stroke-opacity:1;stroke-dasharray:none;display:inline"
       sodipodi:nodetypes="cccccccccc"
       inkscape:connector-curvature="0" />
    <path
       inkscape:connector-curvature="0"
       sodipodi:nodetypes="cccccccccc"
       style="fill:none;stroke:#888a85;stroke-width:0.95984286;stroke-linecap:round;stroke-linejoin:round;stroke-miterlimit:4;stroke-opacity:1;stroke-dasharray:none;display:inline"
       d="m 22.671034,890.41804 6.034635,-4.77865 -6.034635,-4.77864 0,2.38062 c -1.411542,0 -1.023075,0 -2.434617,0 l -2.803275,0 0,4.77865 2.803275,0 c 1.411542,0 1.023075,0 2.434617,0 z"
       id="path50890" />
    <path
       id="path50892"
       d="m 22.671034,1011.018 6.034635,-4.7786 -6.034635,-4.7786 0,2.3806 c -1.411542,0 -1.023075,0 -2.434617,0 l -2.803275,0 0,4.7786 2.803275,0 c 1.411542,0 1.023075,0 2.434617,0 z"
       style="fill:none;stroke:#888a85;stroke-width:0.95984286;stroke-linecap:round;stroke-linejoin:round;stroke-miterlimit:4;stroke-opacity:1;stroke-dasharray:none;display:inline"
       sodipodi:nodetypes="cccccccccc"
       inkscape:connector-curvature="0" />
    <path
       inkscape:connector-curvature="0"
       sodipodi:nodetypes="cccccccccc"
       style="fill:none;stroke:#888a85;stroke-width:0.95984286;stroke-linecap:round;stroke-linejoin:round;stroke-miterlimit:4;stroke-opacity:1;stroke-dasharray:none;display:inline"
       d="m 136.07103,1036.218 6.03464,-4.7786 -6.03464,-4.7787 0,2.3806 c -1.41154,0 -1.02307,0 -2.43461,0 l -2.80328,0 0,4.7787 2.80328,0 c 1.41154,0 1.02307,0 2.43461,0 z"
       id="path50894" />
    <text
       xml:space="preserve"
       style="font-size:10.80000019px;font-style:normal;font-variant:normal;font-weight:normal;font-stretch:normal;text-align:center;line-height:100%;writing-mode:lr-tb;text-anchor:middle;fill:#000000;fill-opacity:1;stroke:none;font-family:Helvetica;-inkscape-font-specification:Helvetica"
       x="69.526192"
       y="960.42419"
       id="text50908"
       sodipodi:linespacing="100%"><tspan
         sodipodi:role="line"
         id="tspan50910"
         x="69.526192"
         y="960.42419">Rew</tspan></text>
    <path
       sodipodi:nodetypes="cc"
       id="path50920"
       d="m 254.84355,846.03466 c 1.97973,3.82825 6.63439,3.62455 7.28662,4.91898"
       style="fill:none;stroke:#cc0000;stroke-width:1.63358259;stroke-linecap:butt;stroke-linejoin:miter;stroke-miterlimit:4;stroke-opacity:1;stroke-dasharray:none;display:inline"
       inkscape:connector-curvature="0" />
    <path
       sodipodi:type="star"
       style="fill:#babdb6;fill-opacity:1;stroke:#babdb6;stroke-width:4;stroke-linecap:round;stroke-miterlimit:4;stroke-opacity:1;stroke-dasharray:none"
       id="path50931"
       sodipodi:sides="3"
       sodipodi:cx="298.50009"
       sodipodi:cy="246.26045"
       sodipodi:r1="7.0710678"
       sodipodi:r2="3.5355339"
       sodipodi:arg1="3.1415927"
       sodipodi:arg2="4.1887902"
       inkscape:flatsided="false"
       inkscape:rounded="0"
       inkscape:randomized="0"
       d="m 291.42902,246.26045 5.3033,-3.06186 5.30331,-3.06186 0,6.12372 0,6.12373 -5.30331,-3.06187 z"
       transform="matrix(0.31498936,0.26352731,-0.26352731,0.31498936,234.37405,742.56317)" />
    <path
       transform="matrix(0.36319302,0.19171795,-0.19171795,0.36319302,200.91397,704.4819)"
       d="m 291.42902,246.26045 5.3033,-3.06186 5.30331,-3.06186 0,6.12372 0,6.12373 -5.30331,-3.06187 z"
       inkscape:randomized="0"
       inkscape:rounded="0"
       inkscape:flatsided="false"
       sodipodi:arg2="4.1887902"
       sodipodi:arg1="3.1415927"
       sodipodi:r2="3.5355339"
       sodipodi:r1="7.0710678"
       sodipodi:cy="246.26045"
       sodipodi:cx="298.50009"
       sodipodi:sides="3"
       id="path50933"
       style="fill:#cc0000;fill-opacity:1;stroke:#cc0000;stroke-width:4;stroke-linecap:round;stroke-miterlimit:4;stroke-opacity:1;stroke-dasharray:none"
       sodipodi:type="star" />
    <path
       sodipodi:nodetypes="cc"
       id="path50935"
       d="m 229.2798,968.49165 c 12.0081,15.77585 13.96765,33.64435 34.08094,50.91675"
       style="fill:none;stroke:#cc0000;stroke-width:1.63358259;stroke-linecap:butt;stroke-linejoin:miter;stroke-miterlimit:4;stroke-opacity:1;stroke-dasharray:none;display:inline"
       inkscape:connector-curvature="0" />
    <path
       sodipodi:type="arc"
       style="fill:#eeeeec;fill-opacity:1;stroke:#babdb6;stroke-width:5;stroke-linecap:round;stroke-miterlimit:4;stroke-opacity:1;stroke-dasharray:none"
       id="path50937"
       sodipodi:cx="190.91884"
       sodipodi:cy="233.12846"
       sodipodi:rx="34.345184"
       sodipodi:ry="34.345184"
       d="m 225.26402,233.12846 c 0,18.96833 -15.37686,34.34519 -34.34518,34.34519 -18.96832,0 -34.34519,-15.37686 -34.34519,-34.34519 0,-18.96832 15.37687,-34.34518 34.34519,-34.34518 18.96832,0 34.34518,15.37686 34.34518,34.34518 z"
       transform="matrix(0.40839564,0,0,0.40839564,168.1432,859.97945)" />
    <path
       transform="matrix(0.40839564,0,0,0.40839564,130.56431,910.81278)"
       d="m 225.26402,233.12846 c 0,18.96833 -15.37686,34.34519 -34.34518,34.34519 -18.96832,0 -34.34519,-15.37686 -34.34519,-34.34519 0,-18.96832 15.37687,-34.34518 34.34519,-34.34518 18.96832,0 34.34518,15.37686 34.34518,34.34518 z"
       sodipodi:ry="34.345184"
       sodipodi:rx="34.345184"
       sodipodi:cy="233.12846"
       sodipodi:cx="190.91884"
       id="path50939"
       style="fill:#eeeeec;fill-opacity:1;stroke:#2e3436;stroke-width:5;stroke-linecap:round;stroke-miterlimit:4;stroke-opacity:1;stroke-dasharray:none"
       sodipodi:type="arc" />
    <text
       xml:space="preserve"
       style="font-size:13.06866074px;font-style:normal;font-variant:normal;font-weight:normal;font-stretch:normal;text-align:center;line-height:100%;writing-mode:lr-tb;text-anchor:middle;fill:#000000;fill-opacity:1;stroke:none;font-family:Helvetica;-inkscape-font-specification:Helvetica"
       x="208.46715"
       y="1010.7849"
       id="text50941"
       sodipodi:linespacing="100%"><tspan
         sodipodi:role="line"
         id="tspan50943"
         x="208.46715"
         y="1010.7849">S</tspan></text>
    <path
       sodipodi:type="arc"
       style="fill:#eeeeec;fill-opacity:1;stroke:#2e3436;stroke-width:5;stroke-linecap:round;stroke-miterlimit:4;stroke-opacity:1;stroke-dasharray:none"
       id="path50945"
       sodipodi:cx="190.91884"
       sodipodi:cy="233.12846"
       sodipodi:rx="34.345184"
       sodipodi:ry="34.345184"
       d="m 225.26402,233.12846 c 0,18.96833 -15.37686,34.34519 -34.34518,34.34519 -18.96832,0 -34.34519,-15.37686 -34.34519,-34.34519 0,-18.96832 15.37687,-34.34518 34.34519,-34.34518 18.96832,0 34.34518,15.37686 34.34518,34.34518 z"
       transform="matrix(0.40839564,0,0,0.40839564,200.44494,885.29867)" />
    <text
       sodipodi:linespacing="100%"
       id="text50947"
       y="985.19434"
       x="278.04843"
       style="font-size:13.06866074px;font-style:normal;font-variant:normal;font-weight:normal;font-stretch:normal;text-align:center;line-height:100%;writing-mode:lr-tb;text-anchor:middle;fill:#888a85;fill-opacity:1;stroke:none;font-family:Helvetica;-inkscape-font-specification:Helvetica"
       xml:space="preserve"><tspan
         y="985.19434"
         x="278.04843"
         id="tspan50949"
         sodipodi:role="line">L</tspan></text>
    <path
       sodipodi:type="arc"
       style="fill:#eeeeec;fill-opacity:1;stroke:#2e3436;stroke-width:5;stroke-linecap:round;stroke-miterlimit:4;stroke-opacity:1;stroke-dasharray:none"
       id="path50951"
       sodipodi:cx="190.91884"
       sodipodi:cy="233.12846"
       sodipodi:rx="34.345184"
       sodipodi:ry="34.345184"
       d="m 225.26402,233.12846 c 0,18.96833 -15.37686,34.34519 -34.34518,34.34519 -18.96832,0 -34.34519,-15.37686 -34.34519,-34.34519 0,-18.96832 15.37687,-34.34518 34.34519,-34.34518 18.96832,0 34.34518,15.37686 34.34518,34.34518 z"
       transform="matrix(0.40839564,0,0,0.40839564,200.44494,935.31652)" />
    <text
       sodipodi:linespacing="100%"
       id="text50953"
       y="1035.2887"
       x="278.34775"
       style="font-size:13.06866074px;font-style:normal;font-variant:normal;font-weight:normal;font-stretch:normal;text-align:center;line-height:100%;writing-mode:lr-tb;text-anchor:middle;fill:#000000;fill-opacity:1;stroke:none;font-family:Helvetica;-inkscape-font-specification:Helvetica"
       xml:space="preserve"><tspan
         y="1035.2887"
         x="278.34775"
         id="tspan50955"
         sodipodi:role="line">R</tspan></text>
    <path
       transform="matrix(0.41068838,0,0,0.41068838,137.31043,879.92936)"
       d="m 291.42902,246.26045 5.3033,-3.06186 5.30331,-3.06186 0,6.12372 0,6.12373 -5.30331,-3.06187 z"
       inkscape:randomized="0"
       inkscape:rounded="0"
       inkscape:flatsided="false"
       sodipodi:arg2="4.1887902"
       sodipodi:arg1="3.1415927"
       sodipodi:r2="3.5355339"
       sodipodi:r1="7.0710678"
       sodipodi:cy="246.26045"
       sodipodi:cx="298.50009"
       sodipodi:sides="3"
       id="path50957"
       style="fill:#2e3436;fill-opacity:1;stroke:#2e3436;stroke-width:4;stroke-linecap:round;stroke-miterlimit:4;stroke-opacity:1;stroke-dasharray:none"
       sodipodi:type="star" />
    <path
       sodipodi:nodetypes="csc"
       id="path50959"
       d="m 223.46637,1005.2592 c 7.01755,-0.1604 12.78835,2.3599 19.54276,14.1542 6.75439,11.7943 18.29574,10.3995 18.29574,10.3995"
       style="fill:none;stroke:#2e3436;stroke-width:1.31359339;stroke-linecap:butt;stroke-linejoin:miter;stroke-miterlimit:4;stroke-opacity:1;stroke-dasharray:none"
       inkscape:connector-curvature="0" />
    <path
       inkscape:connector-curvature="0"
       style="fill:none;stroke:#2e3436;stroke-width:1.31359339;stroke-linecap:butt;stroke-linejoin:miter;stroke-miterlimit:4;stroke-opacity:1;stroke-dasharray:none"
       d="m 223.46637,1005.3769 c 7.01755,0.1604 12.78835,-2.36 19.54276,-14.15423 6.75439,-11.79429 18.29574,-10.39951 18.29574,-10.39951"
       id="path50961"
       sodipodi:nodetypes="csc" />
    <path
       sodipodi:type="star"
       style="fill:#2e3436;fill-opacity:1;stroke:#2e3436;stroke-width:4;stroke-linecap:round;stroke-miterlimit:4;stroke-opacity:1;stroke-dasharray:none"
       id="path50963"
       sodipodi:sides="3"
       sodipodi:cx="298.50009"
       sodipodi:cy="246.26045"
       sodipodi:r1="7.0710678"
       sodipodi:r2="3.5355339"
       sodipodi:arg1="3.1415927"
       sodipodi:arg2="4.1887902"
       inkscape:flatsided="false"
       inkscape:rounded="0"
       inkscape:randomized="0"
       d="m 291.42902,246.26045 5.3033,-3.06186 5.30331,-3.06186 0,6.12372 0,6.12373 -5.30331,-3.06187 z"
       transform="matrix(0.41068838,0,0,0.41068838,137.31043,928.52936)" />
    <path
       transform="matrix(0.40839564,0,0,0.40839564,146.1432,859.97945)"
       d="m 225.26402,233.12846 a 34.345184,34.345184 0 1 1 -68.69037,0 34.345184,34.345184 0 1 1 68.69037,0 z"
       sodipodi:ry="34.345184"
       sodipodi:rx="34.345184"
       sodipodi:cy="233.12846"
       sodipodi:cx="190.91884"
       id="path50965"
       style="fill:#eeeeec;fill-opacity:1;stroke:#cc0000;stroke-width:5;stroke-linecap:round;stroke-miterlimit:4;stroke-opacity:1;stroke-dasharray:none"
       sodipodi:type="arc" />
    <path
       inkscape:connector-curvature="0"
       style="fill:none;stroke:#babdb6;stroke-width:1.63358259;stroke-linecap:butt;stroke-linejoin:miter;stroke-miterlimit:4;stroke-opacity:1;stroke-dasharray:none;display:inline"
       d="m 254.84355,966.63466 c 1.97973,3.82825 6.63439,3.62455 7.28662,4.91898"
       id="path50967"
       sodipodi:nodetypes="cc" />
    <path
       transform="matrix(0.31498936,0.26352731,-0.26352731,0.31498936,234.37405,863.16317)"
       d="m 291.42902,246.26045 5.3033,-3.06186 5.30331,-3.06186 0,6.12372 0,6.12373 -5.30331,-3.06187 z"
       inkscape:randomized="0"
       inkscape:rounded="0"
       inkscape:flatsided="false"
       sodipodi:arg2="4.1887902"
       sodipodi:arg1="3.1415927"
       sodipodi:r2="3.5355339"
       sodipodi:r1="7.0710678"
       sodipodi:cy="246.26045"
       sodipodi:cx="298.50009"
       sodipodi:sides="3"
       id="path50969"
       style="fill:#cc0000;fill-opacity:1;stroke:#cc0000;stroke-width:4;stroke-linecap:round;stroke-miterlimit:4;stroke-opacity:1;stroke-dasharray:none"
       sodipodi:type="star" />
    <path
       sodipodi:type="star"
       style="fill:#babdb6;fill-opacity:1;stroke:#babdb6;stroke-width:4;stroke-linecap:round;stroke-miterlimit:4;stroke-opacity:1;stroke-dasharray:none"
       id="path50971"
       sodipodi:sides="3"
       sodipodi:cx="298.50009"
       sodipodi:cy="246.26045"
       sodipodi:r1="7.0710678"
       sodipodi:r2="3.5355339"
       sodipodi:arg1="3.1415927"
       sodipodi:arg2="4.1887902"
       inkscape:flatsided="false"
       inkscape:rounded="0"
       inkscape:randomized="0"
       d="m 291.42902,246.26045 5.3033,-3.06186 5.30331,-3.06186 0,6.12372 0,6.12373 -5.30331,-3.06187 z"
       transform="matrix(0.36319302,0.19171795,-0.19171795,0.36319302,200.91397,825.0819)" />
    <path
       inkscape:connector-curvature="0"
       sodipodi:nodetypes="cccccccccc"
       style="fill:none;stroke:#888a85;stroke-width:0.95984286;stroke-linecap:round;stroke-linejoin:round;stroke-miterlimit:4;stroke-opacity:1;stroke-dasharray:none;display:inline"
       d="m 186.67103,1011.018 6.03464,-4.7786 -6.03464,-4.7786 0,2.3806 c -1.41154,0 -1.02307,0 -2.43461,0 l -2.80328,0 0,4.7786 2.80328,0 c 1.41154,0 1.02307,0 2.43461,0 z"
       id="path50973" />
    <path
       id="path50975"
       d="m 300.07103,1036.218 6.03464,-4.7786 -6.03464,-4.7787 0,2.3806 c -1.41154,0 -1.02307,0 -2.43461,0 l -2.80328,0 0,4.7787 2.80328,0 c 1.41154,0 1.02307,0 2.43461,0 z"
       style="fill:none;stroke:#888a85;stroke-width:0.95984286;stroke-linecap:round;stroke-linejoin:round;stroke-miterlimit:4;stroke-opacity:1;stroke-dasharray:none;display:inline"
       sodipodi:nodetypes="cccccccccc"
       inkscape:connector-curvature="0" />
    <path
       inkscape:connector-curvature="0"
       sodipodi:nodetypes="cccccccccc"
       style="fill:none;stroke:#888a85;stroke-width:0.95984286;stroke-linecap:round;stroke-linejoin:round;stroke-miterlimit:4;stroke-opacity:1;stroke-dasharray:none;display:inline"
       d="m 300.07103,865.21804 6.03464,-4.77865 -6.03464,-4.77864 0,2.38062 c -1.41154,0 -1.02307,0 -2.43461,0 l -2.80328,0 0,4.77865 2.80328,0 c 1.41154,0 1.02307,0 2.43461,0 z"
       id="path50977" />
    <path
       id="path50979"
       d="m 186.67103,890.41804 6.03464,-4.77865 -6.03464,-4.77864 0,2.38062 c -1.41154,0 -1.02307,0 -2.43461,0 l -2.80328,0 0,4.77865 2.80328,0 c 1.41154,0 1.02307,0 2.43461,0 z"
       style="fill:none;stroke:#888a85;stroke-width:0.95984286;stroke-linecap:round;stroke-linejoin:round;stroke-miterlimit:4;stroke-opacity:1;stroke-dasharray:none;display:inline"
       sodipodi:nodetypes="cccccccccc"
       inkscape:connector-curvature="0" />
    <path
       transform="matrix(0.63451116,0,0,0.63451116,-94.427526,705.72528)"
       d="m 291.42902,246.26045 5.3033,-3.06186 5.30331,-3.06186 0,6.12372 0,6.12373 -5.30331,-3.06187 z"
       inkscape:randomized="0"
       inkscape:rounded="0"
       inkscape:flatsided="false"
       sodipodi:arg2="4.1887902"
       sodipodi:arg1="3.1415927"
       sodipodi:r2="3.5355339"
       sodipodi:r1="7.0710678"
       sodipodi:cy="246.26045"
       sodipodi:cx="298.50009"
       sodipodi:sides="3"
       id="path50140"
       style="fill:#cc0000;fill-opacity:1;stroke:#cc0000;stroke-width:4;stroke-linecap:round;stroke-miterlimit:4;stroke-opacity:1;stroke-dasharray:none"
       sodipodi:type="star" />
    <path
       sodipodi:type="star"
       style="fill:#cc0000;fill-opacity:1;stroke:#cc0000;stroke-width:4;stroke-linecap:round;stroke-miterlimit:4;stroke-opacity:1;stroke-dasharray:none"
       id="path50752"
       sodipodi:sides="3"
       sodipodi:cx="298.50009"
       sodipodi:cy="246.26045"
       sodipodi:r1="7.0710678"
       sodipodi:r2="3.5355339"
       sodipodi:arg1="3.1415927"
       sodipodi:arg2="4.1887902"
       inkscape:flatsided="false"
       inkscape:rounded="0"
       inkscape:randomized="0"
       d="m 291.42902,246.26045 5.3033,-3.06186 5.30331,-3.06186 0,6.12372 0,6.12373 -5.30331,-3.06187 z"
       transform="matrix(0.63451116,0,0,0.63451116,-94.427526,872.40242)" />
    <path
       sodipodi:type="arc"
       style="fill:#eeeeec;fill-opacity:1;stroke:#babdb6;stroke-width:5;stroke-linecap:round;stroke-miterlimit:4;stroke-opacity:1;stroke-dasharray:none"
       id="path50918"
       sodipodi:cx="190.91884"
       sodipodi:cy="233.12846"
       sodipodi:rx="34.345184"
       sodipodi:ry="34.345184"
       d="m 225.26402,233.12846 a 34.345184,34.345184 0 1 1 -68.69037,0 34.345184,34.345184 0 1 1 68.69037,0 z"
       transform="matrix(0.40839564,0,0,0.40839564,146.1432,739.37945)" />
    <g
       id="g50997">
      <text
         sodipodi:linespacing="100%"
         id="text50981"
         y="839.28143"
         x="222.12"
         style="font-size:13.06866074px;font-style:normal;font-variant:normal;font-weight:normal;font-stretch:normal;text-align:center;line-height:100%;writing-mode:lr-tb;text-anchor:middle;fill:#000000;fill-opacity:1;stroke:none;font-family:Helvetica;-inkscape-font-specification:Helvetica"
         xml:space="preserve"><tspan
           y="839.28143"
           x="222.12"
           id="tspan50983"
           sodipodi:role="line">C</tspan></text>
      <text
         xml:space="preserve"
         style="font-size:8px;font-style:normal;font-variant:normal;font-weight:normal;font-stretch:normal;text-align:center;line-height:100%;writing-mode:lr-tb;text-anchor:middle;fill:#000000;fill-opacity:1;stroke:none;font-family:Helvetica;-inkscape-font-specification:Helvetica"
         x="228.83429"
         y="839.2655"
         id="text50985"
         sodipodi:linespacing="100%"><tspan
           sodipodi:role="line"
           id="tspan50987"
           x="228.83429"
           y="839.2655">2</tspan></text>
    </g>
    <g
       id="g51003">
      <text
         xml:space="preserve"
         style="font-size:13.06866074px;font-style:normal;font-variant:normal;font-weight:normal;font-stretch:normal;text-align:center;line-height:100%;writing-mode:lr-tb;text-anchor:middle;fill:#000000;fill-opacity:1;stroke:none;font-family:Helvetica;-inkscape-font-specification:Helvetica"
         x="244.12"
         y="839.2655"
         id="text50989"
         sodipodi:linespacing="100%"><tspan
           sodipodi:role="line"
           id="tspan50991"
           x="244.12"
           y="839.2655">C</tspan></text>
      <text
         sodipodi:linespacing="100%"
         id="text50993"
         y="839.2655"
         x="250.83429"
         style="font-size:8px;font-style:normal;font-variant:normal;font-weight:normal;font-stretch:normal;text-align:center;line-height:100%;writing-mode:lr-tb;text-anchor:middle;fill:#000000;fill-opacity:1;stroke:none;font-family:Helvetica;-inkscape-font-specification:Helvetica"
         xml:space="preserve"><tspan
           y="839.2655"
           x="250.83429"
           id="tspan50995"
           sodipodi:role="line">1</tspan></text>
    </g>
    <g
       id="g51009"
       transform="translate(0,120)">
      <text
         xml:space="preserve"
         style="font-size:13.06866074px;font-style:normal;font-variant:normal;font-weight:normal;font-stretch:normal;text-align:center;line-height:100%;writing-mode:lr-tb;text-anchor:middle;fill:#000000;fill-opacity:1;stroke:none;font-family:Helvetica;-inkscape-font-specification:Helvetica"
         x="222.12"
         y="839.88147"
         id="text51011"
         sodipodi:linespacing="100%"><tspan
           sodipodi:role="line"
           id="tspan51013"
           x="222.12"
           y="839.88147">C</tspan></text>
      <text
         sodipodi:linespacing="100%"
         id="text51015"
         y="839.77063"
         x="228.83429"
         style="font-size:8px;font-style:normal;font-variant:normal;font-weight:normal;font-stretch:normal;text-align:center;line-height:100%;writing-mode:lr-tb;text-anchor:middle;fill:#000000;fill-opacity:1;stroke:none;font-family:Helvetica;-inkscape-font-specification:Helvetica"
         xml:space="preserve"><tspan
           y="839.77063"
           x="228.83429"
           id="tspan51017"
           sodipodi:role="line">2</tspan></text>
    </g>
    <g
       id="g51019"
       transform="translate(0,120)">
      <text
         sodipodi:linespacing="100%"
         id="text51021"
         y="839.88147"
         x="244.12"
         style="font-size:13.06866074px;font-style:normal;font-variant:normal;font-weight:normal;font-stretch:normal;text-align:center;line-height:100%;writing-mode:lr-tb;text-anchor:middle;fill:#000000;fill-opacity:1;stroke:none;font-family:Helvetica;-inkscape-font-specification:Helvetica"
         xml:space="preserve"><tspan
           y="839.88147"
           x="244.12"
           id="tspan51023"
           sodipodi:role="line">C</tspan></text>
      <text
         xml:space="preserve"
         style="font-size:8px;font-style:normal;font-variant:normal;font-weight:normal;font-stretch:normal;text-align:center;line-height:100%;writing-mode:lr-tb;text-anchor:middle;fill:#000000;fill-opacity:1;stroke:none;font-family:Helvetica;-inkscape-font-specification:Helvetica"
         x="250.83429"
         y="839.77063"
         id="text51025"
         sodipodi:linespacing="100%"><tspan
           sodipodi:role="line"
           id="tspan51027"
           x="250.83429"
           y="839.77063">1</tspan></text>
    </g>
  </g>
</svg>
