<?xml version="1.0" encoding="utf-8" standalone="no"?>
<!DOCTYPE svg PUBLIC "-//W3C//DTD SVG 1.1//EN"
  "http://www.w3.org/Graphics/SVG/1.1/DTD/svg11.dtd">
<!-- Created with matplotlib (http://matplotlib.org/) -->
<svg height="180pt" version="1.1" viewBox="0 0 684 180" width="684pt" xmlns="http://www.w3.org/2000/svg" xmlns:xlink="http://www.w3.org/1999/xlink">
 <defs>
  <style type="text/css">
*{stroke-linecap:butt;stroke-linejoin:round;stroke-miterlimit:100000;}
  </style>
 </defs>
 <g id="figure_1">
  <g id="patch_1">
   <path d="M 0 180 
L 684 180 
L 684 0 
L 0 0 
L 0 180 
z
" style="fill:none;"/>
  </g>
  <g id="axes_1">
   <g id="text_1">
    <text style="font-family:Helvetica;font-size:16.0px;font-style:normal;font-weight:700;text-anchor:start;" transform="rotate(-0.000000, 8.293500, 14.400000)" x="8.2935" y="14.4">A</text>
   </g>
  </g>
  <g id="axes_2">
   <g id="patch_2">
    <path d="M 289.845 147.6 
L 442.035 147.6 
L 442.035 14.4 
L 289.845 14.4 
z
" style="fill:#ffffff;"/>
   </g>
   <g id="LineCollection_1">
    <path clip-path="url(#p71edcce70b)" d="M 300.98024 105.153442 
L 300.98024 87.408731 
" style="fill:none;stroke:#c17d11;"/>
    <path clip-path="url(#p71edcce70b)" d="M 319.547356 106.998874 
L 319.547356 88.679755 
" style="fill:none;stroke:#c17d11;"/>
    <path clip-path="url(#p71edcce70b)" d="M 338.106746 110.230318 
L 338.106746 91.837181 
" style="fill:none;stroke:#c17d11;"/>
    <path clip-path="url(#p71edcce70b)" d="M 356.657159 102.524565 
L 356.657159 82.627954 
" style="fill:none;stroke:#c17d11;"/>
    <path clip-path="url(#p71edcce70b)" d="M 375.219936 97.872544 
L 375.219936 79.244965 
" style="fill:none;stroke:#c17d11;"/>
    <path clip-path="url(#p71edcce70b)" d="M 393.781136 107.110387 
L 393.781136 86.957233 
" style="fill:none;stroke:#c17d11;"/>
    <path clip-path="url(#p71edcce70b)" d="M 412.340097 99.667136 
L 412.340097 80.545364 
" style="fill:none;stroke:#c17d11;"/>
    <path clip-path="url(#p71edcce70b)" d="M 430.89976 103.145377 
L 430.89976 84.036803 
" style="fill:none;stroke:#c17d11;"/>
   </g>
   <g id="LineCollection_2">
    <path clip-path="url(#p71edcce70b)" d="M 300.98024 147.07851 
L 300.98024 144.196355 
" style="fill:none;stroke:#000000;"/>
    <path clip-path="url(#p71edcce70b)" d="M 319.547356 145.883878 
L 319.547356 141.513121 
" style="fill:none;stroke:#000000;"/>
    <path clip-path="url(#p71edcce70b)" d="M 338.106746 145.448317 
L 338.106746 140.830707 
" style="fill:none;stroke:#000000;"/>
    <path clip-path="url(#p71edcce70b)" d="M 356.657159 104.788267 
L 356.657159 92.446315 
" style="fill:none;stroke:#000000;"/>
    <path clip-path="url(#p71edcce70b)" d="M 375.219936 51.565286 
L 375.219936 39.929512 
" style="fill:none;stroke:#000000;"/>
    <path clip-path="url(#p71edcce70b)" d="M 393.781136 26.724753 
L 393.781136 20.025864 
" style="fill:none;stroke:#000000;"/>
    <path clip-path="url(#p71edcce70b)" d="M 412.340097 26.678077 
L 412.340097 20.270605 
" style="fill:none;stroke:#000000;"/>
    <path clip-path="url(#p71edcce70b)" d="M 430.89976 50.875735 
L 430.89976 39.369935 
" style="fill:none;stroke:#000000;"/>
   </g>
   <g id="line2d_1">
    <defs>
     <path d="M 3 0 
L -3 -0 
" id="m175cd6ceef" style="stroke:#c17d11;stroke-width:0.5;"/>
    </defs>
    <g clip-path="url(#p71edcce70b)">
     <use style="fill:#c17d11;stroke:#c17d11;stroke-width:0.5;" x="300.980240376" xlink:href="#m175cd6ceef" y="105.153441879"/>
     <use style="fill:#c17d11;stroke:#c17d11;stroke-width:0.5;" x="319.547355865" xlink:href="#m175cd6ceef" y="106.998874034"/>
     <use style="fill:#c17d11;stroke:#c17d11;stroke-width:0.5;" x="338.106745955" xlink:href="#m175cd6ceef" y="110.230318412"/>
     <use style="fill:#c17d11;stroke:#c17d11;stroke-width:0.5;" x="356.657159198" xlink:href="#m175cd6ceef" y="102.524564793"/>
     <use style="fill:#c17d11;stroke:#c17d11;stroke-width:0.5;" x="375.219936461" xlink:href="#m175cd6ceef" y="97.8725442016"/>
     <use style="fill:#c17d11;stroke:#c17d11;stroke-width:0.5;" x="393.781136335" xlink:href="#m175cd6ceef" y="107.110387405"/>
     <use style="fill:#c17d11;stroke:#c17d11;stroke-width:0.5;" x="412.340096795" xlink:href="#m175cd6ceef" y="99.6671357643"/>
     <use style="fill:#c17d11;stroke:#c17d11;stroke-width:0.5;" x="430.899759624" xlink:href="#m175cd6ceef" y="103.145377366"/>
    </g>
   </g>
   <g id="line2d_2">
    <g clip-path="url(#p71edcce70b)">
     <use style="fill:#c17d11;stroke:#c17d11;stroke-width:0.5;" x="300.980240376" xlink:href="#m175cd6ceef" y="87.4087306231"/>
     <use style="fill:#c17d11;stroke:#c17d11;stroke-width:0.5;" x="319.547355865" xlink:href="#m175cd6ceef" y="88.6797546474"/>
     <use style="fill:#c17d11;stroke:#c17d11;stroke-width:0.5;" x="338.106745955" xlink:href="#m175cd6ceef" y="91.8371807602"/>
     <use style="fill:#c17d11;stroke:#c17d11;stroke-width:0.5;" x="356.657159198" xlink:href="#m175cd6ceef" y="82.6279539351"/>
     <use style="fill:#c17d11;stroke:#c17d11;stroke-width:0.5;" x="375.219936461" xlink:href="#m175cd6ceef" y="79.2449648072"/>
     <use style="fill:#c17d11;stroke:#c17d11;stroke-width:0.5;" x="393.781136335" xlink:href="#m175cd6ceef" y="86.9572330909"/>
     <use style="fill:#c17d11;stroke:#c17d11;stroke-width:0.5;" x="412.340096795" xlink:href="#m175cd6ceef" y="80.5453638595"/>
     <use style="fill:#c17d11;stroke:#c17d11;stroke-width:0.5;" x="430.899759624" xlink:href="#m175cd6ceef" y="84.0368027035"/>
    </g>
   </g>
   <g id="line2d_3">
    <defs>
     <path d="M 0 3 
C 0.795609 3 1.55874 2.683901 2.12132 2.12132 
C 2.683901 1.55874 3 0.795609 3 0 
C 3 -0.795609 2.683901 -1.55874 2.12132 -2.12132 
C 1.55874 -2.683901 0.795609 -3 0 -3 
C -0.795609 -3 -1.55874 -2.683901 -2.12132 -2.12132 
C -2.683901 -1.55874 -3 -0.795609 -3 0 
C -3 0.795609 -2.683901 1.55874 -2.12132 2.12132 
C -1.55874 2.683901 -0.795609 3 0 3 
z
" id="m714da8f806"/>
    </defs>
    <g>
     <use style="fill:#c17d11;" x="300.980240376" xlink:href="#m714da8f806" y="96.5731343284"/>
     <use style="fill:#c17d11;" x="319.547355865" xlink:href="#m714da8f806" y="98.1870967742"/>
     <use style="fill:#c17d11;" x="338.106745955" xlink:href="#m714da8f806" y="101.463687151"/>
     <use style="fill:#c17d11;" x="356.657159198" xlink:href="#m714da8f806" y="92.8490797546"/>
     <use style="fill:#c17d11;" x="375.219936461" xlink:href="#m714da8f806" y="88.7115789474"/>
     <use style="fill:#c17d11;" x="393.781136335" xlink:href="#m714da8f806" y="97.4337662338"/>
     <use style="fill:#c17d11;" x="412.340096795" xlink:href="#m714da8f806" y="90.3016759777"/>
     <use style="fill:#c17d11;" x="430.899759624" xlink:href="#m714da8f806" y="93.8659090909"/>
    </g>
   </g>
   <g id="line2d_4">
    <path d="M 289.845 98.607545 
L 293.747308 98.41177 
L 297.649615 98.215602 
L 301.551923 98.019095 
L 305.454231 97.822305 
L 309.356538 97.625288 
L 313.258846 97.428101 
L 317.161154 97.230799 
L 321.063462 97.033439 
L 324.965769 96.836078 
L 328.868077 96.638773 
L 332.770385 96.441579 
L 336.672692 96.244554 
L 340.575 96.047753 
L 344.477308 95.851232 
L 348.379615 95.655047 
L 352.281923 95.459254 
L 356.184231 95.263907 
L 360.086538 95.06906 
L 363.988846 94.874767 
L 367.891154 94.681082 
L 371.793462 94.488056 
L 375.695769 94.295741 
L 379.598077 94.104189 
L 383.500385 93.913449 
L 387.402692 93.723571 
L 391.305 93.534602 
L 395.207308 93.34659 
L 399.109615 93.159582 
L 403.011923 92.973622 
L 406.914231 92.788754 
L 410.816538 92.605022 
L 414.718846 92.422468 
L 418.621154 92.241131 
L 422.523462 92.061051 
L 426.425769 91.882266 
L 430.328077 91.704814 
L 434.230385 91.528729 
L 438.132692 91.354045 
L 442.035 91.180796 
" style="fill:none;stroke:#c17d11;stroke-linecap:square;stroke-width:2.0;"/>
   </g>
   <g id="line2d_5">
    <defs>
     <path d="M 3 0 
L -3 -0 
" id="mf33f878a7c" style="stroke:#000000;stroke-width:0.5;"/>
    </defs>
    <g clip-path="url(#p71edcce70b)">
     <use style="stroke:#000000;stroke-width:0.5;" x="300.980240376" xlink:href="#mf33f878a7c" y="147.078509619"/>
     <use style="stroke:#000000;stroke-width:0.5;" x="319.547355865" xlink:href="#mf33f878a7c" y="145.88387762"/>
     <use style="stroke:#000000;stroke-width:0.5;" x="338.106745955" xlink:href="#mf33f878a7c" y="145.448317158"/>
     <use style="stroke:#000000;stroke-width:0.5;" x="356.657159198" xlink:href="#mf33f878a7c" y="104.788266888"/>
     <use style="stroke:#000000;stroke-width:0.5;" x="375.219936461" xlink:href="#mf33f878a7c" y="51.5652862772"/>
     <use style="stroke:#000000;stroke-width:0.5;" x="393.781136335" xlink:href="#mf33f878a7c" y="26.7247529441"/>
     <use style="stroke:#000000;stroke-width:0.5;" x="412.340096795" xlink:href="#mf33f878a7c" y="26.6780767668"/>
     <use style="stroke:#000000;stroke-width:0.5;" x="430.899759624" xlink:href="#mf33f878a7c" y="50.875734871"/>
    </g>
   </g>
   <g id="line2d_6">
    <g clip-path="url(#p71edcce70b)">
     <use style="stroke:#000000;stroke-width:0.5;" x="300.980240376" xlink:href="#mf33f878a7c" y="144.196354534"/>
     <use style="stroke:#000000;stroke-width:0.5;" x="319.547355865" xlink:href="#mf33f878a7c" y="141.513121275"/>
     <use style="stroke:#000000;stroke-width:0.5;" x="338.106745955" xlink:href="#mf33f878a7c" y="140.830707047"/>
     <use style="stroke:#000000;stroke-width:0.5;" x="356.657159198" xlink:href="#mf33f878a7c" y="92.4463151606"/>
     <use style="stroke:#000000;stroke-width:0.5;" x="375.219936461" xlink:href="#mf33f878a7c" y="39.929511568"/>
     <use style="stroke:#000000;stroke-width:0.5;" x="393.781136335" xlink:href="#mf33f878a7c" y="20.0258638853"/>
     <use style="stroke:#000000;stroke-width:0.5;" x="412.340096795" xlink:href="#mf33f878a7c" y="20.2706052536"/>
     <use style="stroke:#000000;stroke-width:0.5;" x="430.899759624" xlink:href="#mf33f878a7c" y="39.3699354146"/>
    </g>
   </g>
   <g id="line2d_7">
    <defs>
     <path d="M 0 3 
C 0.795609 3 1.55874 2.683901 2.12132 2.12132 
C 2.683901 1.55874 3 0.795609 3 0 
C 3 -0.795609 2.683901 -1.55874 2.12132 -2.12132 
C 1.55874 -2.683901 0.795609 -3 0 -3 
C -0.795609 -3 -1.55874 -2.683901 -2.12132 -2.12132 
C -2.683901 -1.55874 -3 -0.795609 -3 0 
C -3 0.795609 -2.683901 1.55874 -2.12132 2.12132 
C -1.55874 2.683901 -0.795609 3 0 3 
z
" id="m6cb6a77f2c"/>
    </defs>
    <g>
     <use x="300.980240376" xlink:href="#m6cb6a77f2c" y="146.261306533"/>
     <use x="319.547355865" xlink:href="#m6cb6a77f2c" y="144.351219512"/>
     <use x="338.106745955" xlink:href="#m6cb6a77f2c" y="143.764397906"/>
     <use x="356.657159198" xlink:href="#m6cb6a77f2c" y="98.7815533981"/>
     <use x="375.219936461" xlink:href="#m6cb6a77f2c" y="45.3680672269"/>
     <use x="393.781136335" xlink:href="#m6cb6a77f2c" y="22.7704918033"/>
     <use x="412.340096795" xlink:href="#m6cb6a77f2c" y="22.9300492611"/>
     <use x="430.899759624" xlink:href="#m6cb6a77f2c" y="44.74"/>
    </g>
   </g>
   <g id="line2d_8">
    <path d="M 289.845 145.736875 
L 293.747308 145.73468 
L 297.649615 145.730704 
L 301.551923 145.723499 
L 305.454231 145.710448 
L 309.356538 145.686807 
L 313.258846 145.643998 
L 317.161154 145.566512 
L 321.063462 145.426382 
L 324.965769 145.173346 
L 328.868077 144.717696 
L 332.770385 143.901262 
L 336.672692 142.451315 
L 340.575 139.91646 
L 344.477308 135.604429 
L 348.379615 128.599481 
L 352.281923 118.029361 
L 356.184231 103.731815 
L 360.086538 87.006751 
L 363.988846 70.466445 
L 367.891154 56.613854 
L 371.793462 46.53818 
L 375.695769 39.936821 
L 379.598077 35.902892 
L 383.500385 33.541978 
L 387.402692 32.194988 
L 391.305 31.437633 
L 395.207308 31.0153 
L 399.109615 30.780874 
L 403.011923 30.651081 
L 406.914231 30.579322 
L 410.816538 30.53968 
L 414.718846 30.517789 
L 418.621154 30.505704 
L 422.523462 30.499033 
L 426.425769 30.495351 
L 430.328077 30.493319 
L 434.230385 30.492197 
L 438.132692 30.491578 
L 442.035 30.491236 
" style="fill:none;stroke:#000000;stroke-linecap:square;stroke-width:2.0;"/>
   </g>
   <g id="patch_3">
    <path d="M 289.845 147.6 
L 442.035 147.6 
" style="fill:none;stroke:#000000;stroke-linecap:square;stroke-linejoin:miter;"/>
   </g>
   <g id="patch_4">
    <path d="M 289.845 147.6 
L 289.845 14.4 
" style="fill:none;stroke:#000000;stroke-linecap:square;stroke-linejoin:miter;"/>
   </g>
   <g id="matplotlib.axis_1">
    <g id="xtick_1">
     <g id="line2d_9">
      <defs>
       <path d="M 0 0 
L 0 -4 
" id="m2ab4c777aa" style="stroke:#000000;stroke-width:0.5;"/>
      </defs>
      <g>
       <use style="stroke:#000000;stroke-width:0.5;" x="297.21149918" xlink:href="#m2ab4c777aa" y="147.6"/>
      </g>
     </g>
     <g id="text_2">
      <text style="font-family:Helvetica;font-size:12.0px;font-style:normal;font-weight:400;text-anchor:middle;" transform="rotate(-0.000000, 297.211499, 160.208125)" x="297.21149918" y="160.208125">6</text>
     </g>
    </g>
    <g id="xtick_2">
     <g id="line2d_10">
      <g>
       <use style="stroke:#000000;stroke-width:0.5;" x="366.878510963" xlink:href="#m2ab4c777aa" y="147.6"/>
      </g>
     </g>
     <g id="text_3">
      <text style="font-family:Helvetica;font-size:12.0px;font-style:normal;font-weight:400;text-anchor:middle;" transform="rotate(-0.000000, 366.878511, 160.208125)" x="366.878510963" y="160.208125">11</text>
     </g>
    </g>
    <g id="xtick_3">
     <g id="line2d_11">
      <g>
       <use style="stroke:#000000;stroke-width:0.5;" x="429.696227071" xlink:href="#m2ab4c777aa" y="147.6"/>
      </g>
     </g>
     <g id="text_4">
      <text style="font-family:Helvetica;font-size:12.0px;font-style:normal;font-weight:400;text-anchor:middle;" transform="rotate(-0.000000, 429.696227, 160.208125)" x="429.696227071" y="160.208125">19</text>
     </g>
    </g>
    <g id="text_5">
     <text style="font-family:Helvetica;font-size:12.0px;font-style:normal;font-weight:400;text-anchor:middle;" transform="rotate(-0.000000, 365.940000, 176.458125)" x="365.94" y="176.458125">Frequency (kHz)</text>
    </g>
   </g>
   <g id="matplotlib.axis_2">
    <g id="ytick_1">
     <g id="line2d_12">
      <defs>
       <path d="M 0 0 
L 4 0 
" id="m32785193ae" style="stroke:#000000;stroke-width:0.5;"/>
      </defs>
      <g>
       <use style="stroke:#000000;stroke-width:0.5;" x="289.845" xlink:href="#m32785193ae" y="147.6"/>
      </g>
     </g>
     <g id="text_6">
      <text style="font-family:Helvetica;font-size:12.0px;font-style:normal;font-weight:400;text-anchor:end;" transform="rotate(-0.000000, 285.845000, 150.653437)" x="285.845" y="150.6534375">0</text>
     </g>
    </g>
    <g id="ytick_2">
     <g id="line2d_13">
      <g>
       <use style="stroke:#000000;stroke-width:0.5;" x="289.845" xlink:href="#m32785193ae" y="81.0"/>
      </g>
     </g>
     <g id="text_7">
      <text style="font-family:Helvetica;font-size:12.0px;font-style:normal;font-weight:400;text-anchor:end;" transform="rotate(-0.000000, 285.845000, 84.053438)" x="285.845" y="84.0534375">50</text>
     </g>
    </g>
    <g id="ytick_3">
     <g id="line2d_14">
      <g>
       <use style="stroke:#000000;stroke-width:0.5;" x="289.845" xlink:href="#m32785193ae" y="14.4"/>
      </g>
     </g>
     <g id="text_8">
      <text style="font-family:Helvetica;font-size:12.0px;font-style:normal;font-weight:400;text-anchor:end;" transform="rotate(-0.000000, 285.845000, 17.453438)" x="285.845" y="17.4534375">100</text>
     </g>
    </g>
    <g id="text_9">
     <text style="font-family:Helvetica;font-size:12.0px;font-style:normal;font-weight:400;text-anchor:middle;" transform="rotate(-90.000000, 258.170625, 81.000000)" x="258.170625" y="81.0">Rightward trials (%)</text>
    </g>
   </g>
   <g id="text_10">
    <text style="font-family:Helvetica;font-size:16.0px;font-style:normal;font-weight:700;text-anchor:start;" transform="rotate(-0.000000, 236.578500, 14.400000)" x="236.5785" y="14.4">B</text>
   </g>
   <g id="legend_1">
    <g id="line2d_15">
     <path d="M 299.445 24.808125 
L 310.245 24.808125 
" style="fill:none;stroke:#000000;stroke-linecap:square;stroke-width:2.0;"/>
    </g>
    <g id="line2d_16"/>
    <g id="text_11">
     <text style="font-family:Helvetica;font-size:12.0px;font-style:normal;font-weight:400;text-anchor:start;" transform="rotate(-0.000000, 316.245000, 29.008125)" x="316.245" y="29.008125">Saline</text>
    </g>
    <g id="line2d_17">
     <path d="M 299.445 37.1175 
L 310.245 37.1175 
" style="fill:none;stroke:#c17d11;stroke-linecap:square;stroke-width:2.0;"/>
    </g>
    <g id="line2d_18"/>
    <g id="text_12">
     <text style="font-family:Helvetica;font-size:12.0px;font-style:normal;font-weight:400;text-anchor:start;" transform="rotate(-0.000000, 316.245000, 41.317500)" x="316.245" y="41.3175">Muscimol</text>
    </g>
   </g>
  </g>
  <g id="axes_3">
   <g id="patch_5">
    <path d="M 518.13 147.6 
L 670.32 147.6 
L 670.32 14.4 
L 518.13 14.4 
z
" style="fill:#ffffff;"/>
   </g>
   <g id="patch_6">
    <path clip-path="url(#pe2253aabd1)" d="M 525.906131 142.476923 
L 536.274307 142.476923 
L 536.274307 58.009812 
L 525.906131 58.009812 
z
" style="fill:#ffffff;stroke:#000000;stroke-linejoin:miter;stroke-width:2.0;"/>
   </g>
   <g id="patch_7">
    <path clip-path="url(#pe2253aabd1)" d="M 555.529489 142.476923 
L 565.897664 142.476923 
L 565.897664 51.950493 
L 555.529489 51.950493 
z
" style="fill:#ffffff;stroke:#000000;stroke-linejoin:miter;stroke-width:2.0;"/>
   </g>
   <g id="patch_8">
    <path clip-path="url(#pe2253aabd1)" d="M 585.152847 142.476923 
L 595.521022 142.476923 
L 595.521022 45.22567 
L 585.152847 45.22567 
z
" style="fill:#ffffff;stroke:#000000;stroke-linejoin:miter;stroke-width:2.0;"/>
   </g>
   <g id="patch_9">
    <path clip-path="url(#pe2253aabd1)" d="M 614.776204 142.476923 
L 625.14438 142.476923 
L 625.14438 47.465651 
L 614.776204 47.465651 
z
" style="fill:#ffffff;stroke:#000000;stroke-linejoin:miter;stroke-width:2.0;"/>
   </g>
   <g id="patch_10">
    <path clip-path="url(#pe2253aabd1)" d="M 644.399562 142.476923 
L 654.767737 142.476923 
L 654.767737 44.088118 
L 644.399562 44.088118 
z
" style="fill:#ffffff;stroke:#000000;stroke-linejoin:miter;stroke-width:2.0;"/>
   </g>
   <g id="patch_11">
    <path clip-path="url(#pe2253aabd1)" d="M 536.274307 142.476923 
L 546.642482 142.476923 
L 546.642482 131.604472 
L 536.274307 131.604472 
z
" style="fill:#ffffff;stroke:#c17d11;stroke-linejoin:miter;stroke-width:2.0;"/>
   </g>
   <g id="patch_12">
    <path clip-path="url(#pe2253aabd1)" d="M 565.897664 142.476923 
L 576.265839 142.476923 
L 576.265839 120.114422 
L 565.897664 120.114422 
z
" style="fill:#ffffff;stroke:#c17d11;stroke-linejoin:miter;stroke-width:2.0;"/>
   </g>
   <g id="patch_13">
    <path clip-path="url(#pe2253aabd1)" d="M 595.521022 142.476923 
L 605.889197 142.476923 
L 605.889197 134.493633 
L 595.521022 134.493633 
z
" style="fill:#ffffff;stroke:#c17d11;stroke-linejoin:miter;stroke-width:2.0;"/>
   </g>
   <g id="patch_14">
    <path clip-path="url(#pe2253aabd1)" d="M 625.14438 142.476923 
L 635.512555 142.476923 
L 635.512555 138.407786 
L 625.14438 138.407786 
z
" style="fill:#ffffff;stroke:#c17d11;stroke-linejoin:miter;stroke-width:2.0;"/>
   </g>
   <g id="patch_15">
    <path clip-path="url(#pe2253aabd1)" d="M 654.767737 145.581762 
L 665.135912 145.581762 
L 665.135912 142.476923 
L 654.767737 142.476923 
z
" style="fill:#ffffff;stroke:#c17d11;stroke-linejoin:miter;stroke-width:2.0;"/>
   </g>
   <g id="line2d_19">
    <defs>
     <path d="M 0 3 
C 0.795609 3 1.55874 2.683901 2.12132 2.12132 
C 2.683901 1.55874 3 0.795609 3 0 
C 3 -0.795609 2.683901 -1.55874 2.12132 -2.12132 
C 1.55874 -2.683901 0.795609 -3 0 -3 
C -0.795609 -3 -1.55874 -2.683901 -2.12132 -2.12132 
C -2.683901 -1.55874 -3 -0.795609 -3 0 
C -3 0.795609 -2.683901 1.55874 -2.12132 2.12132 
C -1.55874 2.683901 -0.795609 3 0 3 
z
" id="m18da30dbc7" style="stroke:#000000;stroke-width:0.5;"/>
    </defs>
    <g>
     <use style="fill:none;stroke:#000000;stroke-width:0.5;" x="531.090218978" xlink:href="#m18da30dbc7" y="52.5661891117"/>
     <use style="fill:none;stroke:#000000;stroke-width:0.5;" x="531.090218978" xlink:href="#m18da30dbc7" y="46.0749379653"/>
     <use style="fill:none;stroke:#000000;stroke-width:0.5;" x="531.090218978" xlink:href="#m18da30dbc7" y="77.5157171359"/>
     <use style="fill:none;stroke:#000000;stroke-width:0.5;" x="531.090218978" xlink:href="#m18da30dbc7" y="55.8824042354"/>
    </g>
   </g>
   <g id="line2d_20">
    <defs>
     <path d="M 0 3 
C 0.795609 3 1.55874 2.683901 2.12132 2.12132 
C 2.683901 1.55874 3 0.795609 3 0 
C 3 -0.795609 2.683901 -1.55874 2.12132 -2.12132 
C 1.55874 -2.683901 0.795609 -3 0 -3 
C -0.795609 -3 -1.55874 -2.683901 -2.12132 -2.12132 
C -2.683901 -1.55874 -3 -0.795609 -3 0 
C -3 0.795609 -2.683901 1.55874 -2.12132 2.12132 
C -1.55874 2.683901 -0.795609 3 0 3 
z
" id="m111f523110" style="stroke:#c17d11;stroke-width:0.5;"/>
    </defs>
    <g>
     <use style="fill:none;stroke:#c17d11;stroke-width:0.5;" x="541.458394161" xlink:href="#m111f523110" y="124.755587808"/>
     <use style="fill:none;stroke:#c17d11;stroke-width:0.5;" x="541.458394161" xlink:href="#m111f523110" y="131.944281377"/>
     <use style="fill:none;stroke:#c17d11;stroke-width:0.5;" x="541.458394161" xlink:href="#m111f523110" y="130.869337114"/>
     <use style="fill:none;stroke:#c17d11;stroke-width:0.5;" x="541.458394161" xlink:href="#m111f523110" y="138.84868163"/>
    </g>
   </g>
   <g id="line2d_21">
    <g>
     <use style="fill:none;stroke:#000000;stroke-width:0.5;" x="560.713576642" xlink:href="#m18da30dbc7" y="55.0335415853"/>
     <use style="fill:none;stroke:#000000;stroke-width:0.5;" x="560.713576642" xlink:href="#m18da30dbc7" y="42.6203389831"/>
     <use style="fill:none;stroke:#000000;stroke-width:0.5;" x="560.713576642" xlink:href="#m18da30dbc7" y="50.1500246233"/>
     <use style="fill:none;stroke:#000000;stroke-width:0.5;" x="560.713576642" xlink:href="#m18da30dbc7" y="59.9980668546"/>
    </g>
   </g>
   <g id="line2d_22">
    <g>
     <use style="fill:none;stroke:#c17d11;stroke-width:0.5;" x="571.081751825" xlink:href="#m111f523110" y="134.31094476"/>
     <use style="fill:none;stroke:#c17d11;stroke-width:0.5;" x="571.081751825" xlink:href="#m111f523110" y="136.213464781"/>
     <use style="fill:none;stroke:#c17d11;stroke-width:0.5;" x="571.081751825" xlink:href="#m111f523110" y="135.545701357"/>
     <use style="fill:none;stroke:#c17d11;stroke-width:0.5;" x="571.081751825" xlink:href="#m111f523110" y="74.3875763537"/>
    </g>
   </g>
   <g id="line2d_23">
    <g>
     <use style="fill:none;stroke:#000000;stroke-width:0.5;" x="590.336934307" xlink:href="#m18da30dbc7" y="49.2035117057"/>
     <use style="fill:none;stroke:#000000;stroke-width:0.5;" x="590.336934307" xlink:href="#m18da30dbc7" y="46.6847301952"/>
     <use style="fill:none;stroke:#000000;stroke-width:0.5;" x="590.336934307" xlink:href="#m18da30dbc7" y="43.7875131718"/>
     <use style="fill:none;stroke:#000000;stroke-width:0.5;" x="590.336934307" xlink:href="#m18da30dbc7" y="41.2269230769"/>
    </g>
   </g>
   <g id="line2d_24">
    <g>
     <use style="fill:none;stroke:#c17d11;stroke-width:0.5;" x="600.705109489" xlink:href="#m111f523110" y="132.529200896"/>
     <use style="fill:none;stroke:#c17d11;stroke-width:0.5;" x="600.705109489" xlink:href="#m111f523110" y="140.116058135"/>
     <use style="fill:none;stroke:#c17d11;stroke-width:0.5;" x="600.705109489" xlink:href="#m111f523110" y="125.594055944"/>
     <use style="fill:none;stroke:#c17d11;stroke-width:0.5;" x="600.705109489" xlink:href="#m111f523110" y="139.735215243"/>
    </g>
   </g>
   <g id="line2d_25">
    <g>
     <use style="fill:none;stroke:#000000;stroke-width:0.5;" x="619.960291971" xlink:href="#m18da30dbc7" y="46.157493188"/>
     <use style="fill:none;stroke:#000000;stroke-width:0.5;" x="619.960291971" xlink:href="#m18da30dbc7" y="57.1497670566"/>
     <use style="fill:none;stroke:#000000;stroke-width:0.5;" x="619.960291971" xlink:href="#m18da30dbc7" y="42.6700072471"/>
     <use style="fill:none;stroke:#000000;stroke-width:0.5;" x="619.960291971" xlink:href="#m18da30dbc7" y="43.8853348091"/>
    </g>
   </g>
   <g id="line2d_26">
    <g>
     <use style="fill:none;stroke:#c17d11;stroke-width:0.5;" x="630.328467153" xlink:href="#m111f523110" y="144.863449594"/>
     <use style="fill:none;stroke:#c17d11;stroke-width:0.5;" x="630.328467153" xlink:href="#m111f523110" y="128.69436705"/>
     <use style="fill:none;stroke:#c17d11;stroke-width:0.5;" x="630.328467153" xlink:href="#m111f523110" y="135.239160839"/>
     <use style="fill:none;stroke:#c17d11;stroke-width:0.5;" x="630.328467153" xlink:href="#m111f523110" y="144.83416706"/>
    </g>
   </g>
   <g id="line2d_27">
    <g>
     <use style="fill:none;stroke:#000000;stroke-width:0.5;" x="649.583649635" xlink:href="#m18da30dbc7" y="43.3365063691"/>
     <use style="fill:none;stroke:#000000;stroke-width:0.5;" x="649.583649635" xlink:href="#m18da30dbc7" y="43.4736145575"/>
     <use style="fill:none;stroke:#000000;stroke-width:0.5;" x="649.583649635" xlink:href="#m18da30dbc7" y="45.9527254203"/>
     <use style="fill:none;stroke:#000000;stroke-width:0.5;" x="649.583649635" xlink:href="#m18da30dbc7" y="43.5896243292"/>
    </g>
   </g>
   <g id="line2d_28">
    <g>
     <use style="fill:none;stroke:#c17d11;stroke-width:0.5;" x="659.951824818" xlink:href="#m111f523110" y="150.239160839"/>
     <use style="fill:none;stroke:#c17d11;stroke-width:0.5;" x="659.951824818" xlink:href="#m111f523110" y="144.593897012"/>
     <use style="fill:none;stroke:#c17d11;stroke-width:0.5;" x="659.951824818" xlink:href="#m111f523110" y="141.601682145"/>
     <use style="fill:none;stroke:#c17d11;stroke-width:0.5;" x="659.951824818" xlink:href="#m111f523110" y="145.892307692"/>
    </g>
   </g>
   <g id="line2d_29">
    <path d="M 531.090219 29.769231 
L 531.090219 27.207692 
L 532.127036 27.207692 
M 540.421577 27.207692 
L 541.458394 27.207692 
L 541.458394 29.769231 
" style="fill:none;stroke:#808080;stroke-linecap:square;"/>
   </g>
   <g id="line2d_30">
    <defs>
     <path d="M 0 -3 
L -0.673542 -0.927051 
L -2.85317 -0.927051 
L -1.089814 0.354102 
L -1.763356 2.427051 
L -0 1.145898 
L 1.763356 2.427051 
L 1.089814 0.354102 
L 2.85317 -0.927051 
L 0.673542 -0.927051 
z
" id="m539d26e38a"/>
    </defs>
    <g>
     <use style="fill:#808080;" x="536.274306569" xlink:href="#m539d26e38a" y="27.2076923077"/>
    </g>
   </g>
   <g id="line2d_31">
    <path d="M 560.713577 29.769231 
L 560.713577 27.207692 
L 561.750394 27.207692 
M 570.044934 27.207692 
L 571.081752 27.207692 
L 571.081752 29.769231 
" style="fill:none;stroke:#808080;stroke-linecap:square;"/>
   </g>
   <g id="line2d_32">
    <g>
     <use style="fill:#808080;" x="565.897664234" xlink:href="#m539d26e38a" y="27.2076923077"/>
    </g>
   </g>
   <g id="line2d_33">
    <path d="M 590.336934 29.769231 
L 590.336934 27.207692 
L 591.373752 27.207692 
M 599.668292 27.207692 
L 600.705109 27.207692 
L 600.705109 29.769231 
" style="fill:none;stroke:#808080;stroke-linecap:square;"/>
   </g>
   <g id="line2d_34">
    <g>
     <use style="fill:#808080;" x="595.521021898" xlink:href="#m539d26e38a" y="27.2076923077"/>
    </g>
   </g>
   <g id="line2d_35">
    <path d="M 619.960292 29.769231 
L 619.960292 27.207692 
L 620.997109 27.207692 
M 629.29165 27.207692 
L 630.328467 27.207692 
L 630.328467 29.769231 
" style="fill:none;stroke:#808080;stroke-linecap:square;"/>
   </g>
   <g id="line2d_36">
    <g>
     <use style="fill:#808080;" x="625.144379562" xlink:href="#m539d26e38a" y="27.2076923077"/>
    </g>
   </g>
   <g id="line2d_37">
    <path d="M 649.58365 29.769231 
L 649.58365 27.207692 
L 650.620467 27.207692 
M 658.915007 27.207692 
L 659.951825 27.207692 
L 659.951825 29.769231 
" style="fill:none;stroke:#808080;stroke-linecap:square;"/>
   </g>
   <g id="line2d_38">
    <g>
     <use style="fill:#808080;" x="654.767737226" xlink:href="#m539d26e38a" y="27.2076923077"/>
    </g>
   </g>
   <g id="line2d_39">
    <path clip-path="url(#pe2253aabd1)" d="M 518.13 142.476923 
L 670.32 142.476923 
" style="fill:none;stroke:#000000;stroke-linecap:square;"/>
   </g>
   <g id="patch_16">
    <path d="M 518.13 147.6 
L 518.13 14.4 
" style="fill:none;stroke:#000000;stroke-linecap:square;stroke-linejoin:miter;"/>
   </g>
   <g id="matplotlib.axis_3">
    <g id="xtick_4">
     <g id="text_13">
      <text style="font-family:Helvetica;font-size:12.0px;font-style:normal;font-weight:400;text-anchor:middle;" transform="rotate(-0.000000, 536.274307, 160.208125)" x="536.274306569" y="160.208125">1</text>
     </g>
    </g>
    <g id="xtick_5">
     <g id="text_14">
      <text style="font-family:Helvetica;font-size:12.0px;font-style:normal;font-weight:400;text-anchor:middle;" transform="rotate(-0.000000, 565.897664, 160.208125)" x="565.897664234" y="160.208125">2</text>
     </g>
    </g>
    <g id="xtick_6">
     <g id="text_15">
      <text style="font-family:Helvetica;font-size:12.0px;font-style:normal;font-weight:400;text-anchor:middle;" transform="rotate(-0.000000, 595.521022, 160.208125)" x="595.521021898" y="160.208125">3</text>
     </g>
    </g>
    <g id="xtick_7">
     <g id="text_16">
      <text style="font-family:Helvetica;font-size:12.0px;font-style:normal;font-weight:400;text-anchor:middle;" transform="rotate(-0.000000, 625.144380, 160.208125)" x="625.144379562" y="160.208125">4</text>
     </g>
    </g>
    <g id="xtick_8">
     <g id="text_17">
      <text style="font-family:Helvetica;font-size:12.0px;font-style:normal;font-weight:400;text-anchor:middle;" transform="rotate(-0.000000, 654.767737, 160.208125)" x="654.767737226" y="160.208125">5</text>
     </g>
    </g>
    <g id="text_18">
     <text style="font-family:Helvetica;font-size:12.0px;font-style:normal;font-weight:400;text-anchor:middle;" transform="rotate(-0.000000, 594.225000, 176.317500)" x="594.225" y="176.3175">Mouse</text>
    </g>
   </g>
   <g id="matplotlib.axis_4">
    <g id="ytick_4">
     <g id="line2d_40">
      <g>
       <use style="stroke:#000000;stroke-width:0.5;" x="518.13" xlink:href="#m32785193ae" y="142.476923077"/>
      </g>
     </g>
     <g id="text_19">
      <text style="font-family:Helvetica;font-size:12.0px;font-style:normal;font-weight:400;text-anchor:end;" transform="rotate(-0.000000, 514.130000, 145.530361)" x="514.13" y="145.530360577">50</text>
     </g>
    </g>
    <g id="ytick_5">
     <g id="line2d_41">
      <g>
       <use style="stroke:#000000;stroke-width:0.5;" x="518.13" xlink:href="#m32785193ae" y="78.4384615385"/>
      </g>
     </g>
     <g id="text_20">
      <text style="font-family:Helvetica;font-size:12.0px;font-style:normal;font-weight:400;text-anchor:end;" transform="rotate(-0.000000, 514.130000, 81.491899)" x="514.13" y="81.4918990385">75</text>
     </g>
    </g>
    <g id="ytick_6">
     <g id="line2d_42">
      <g>
       <use style="stroke:#000000;stroke-width:0.5;" x="518.13" xlink:href="#m32785193ae" y="14.4"/>
      </g>
     </g>
     <g id="text_21">
      <text style="font-family:Helvetica;font-size:12.0px;font-style:normal;font-weight:400;text-anchor:end;" transform="rotate(-0.000000, 514.130000, 17.453438)" x="514.13" y="17.4534375">100</text>
     </g>
    </g>
    <g id="text_22">
     <text style="font-family:Helvetica;font-size:12.0px;font-style:normal;font-weight:400;text-anchor:middle;" transform="rotate(-90.000000, 486.609375, 81.000000)" x="486.609375" y="81.0">Correct trials (%)</text>
    </g>
   </g>
   <g id="text_23">
    <text style="font-family:Helvetica;font-size:16.0px;font-style:normal;font-weight:700;text-anchor:start;" transform="rotate(-0.000000, 464.863500, 14.400000)" x="464.8635" y="14.4">C</text>
   </g>
  </g>
 </g>
 <defs>
  <clipPath id="pe2253aabd1">
   <rect height="133.2" width="152.19" x="518.13" y="14.4"/>
  </clipPath>
  <clipPath id="p71edcce70b">
   <rect height="133.2" width="152.19" x="289.845" y="14.4"/>
  </clipPath>
 </defs>
</svg>
